<svg xmlns="http://www.w3.org/2000/svg" xmlns:xlink="http://www.w3.org/1999/xlink" width="50" zoomAndPan="magnify" viewBox="0 0 37.5 74.999997" height="100" preserveAspectRatio="xMidYMid meet" version="1.0"><defs><clipPath id="e489c4e0b6"><path d="M 17 59 L 24.828125 59 L 24.828125 68.082031 L 17 68.082031 Z M 17 59 " clip-rule="nonzero"/></clipPath><clipPath id="1865087481"><path d="M 12.246094 6.652344 L 24.828125 6.652344 L 24.828125 68 L 12.246094 68 Z M 12.246094 6.652344 " clip-rule="nonzero"/></clipPath></defs><g clip-path="url(#e489c4e0b6)"><path fill="#040606" d="M 17.246094 62.78125 C 17.246094 62.65625 17.285156 62.527344 17.367188 62.421875 C 17.566406 62.164062 17.933594 62.117188 18.191406 62.316406 L 23.125 66.152344 L 22.660156 59.984375 C 22.632812 59.660156 22.878906 59.378906 23.203125 59.351562 C 23.527344 59.328125 23.808594 59.574219 23.832031 59.894531 L 24.394531 67.386719 C 24.414062 67.597656 24.292969 67.835938 24.089844 67.945312 C 23.882812 68.054688 23.632812 68.035156 23.449219 67.890625 L 17.472656 63.246094 C 17.320312 63.132812 17.246094 62.957031 17.246094 62.78125 " fill-opacity="1" fill-rule="nonzero"/></g><g clip-path="url(#1865087481)"><path fill="#040606" d="M 16.820312 42.832031 C 16.179688 41.730469 15.464844 40.871094 14.792969 40.625 C 14.46875 40.503906 14.175781 40.535156 13.867188 40.714844 C 13.550781 40.898438 13.402344 41.066406 13.421875 41.246094 C 13.496094 41.75 14.582031 42.515625 15.308594 42.691406 C 15.839844 42.824219 16.34375 42.871094 16.820312 42.832031 Z M 12.246094 41.210938 C 12.246094 40.796875 12.421875 40.191406 13.277344 39.699219 C 13.886719 39.34375 14.550781 39.28125 15.195312 39.523438 C 16.320312 39.933594 17.285156 41.230469 18.011719 42.546875 C 18.488281 42.34375 18.941406 42.039062 19.371094 41.628906 C 23.003906 38.15625 23.675781 28.195312 23 24.746094 C 21.925781 19.257812 18.636719 11.542969 12.890625 7.84375 C 12.617188 7.667969 12.539062 7.304688 12.714844 7.03125 C 12.890625 6.757812 13.253906 6.679688 13.527344 6.855469 C 19.582031 10.753906 23.035156 18.804688 24.152344 24.519531 C 24.828125 27.980469 24.277344 38.566406 20.179688 42.480469 C 19.667969 42.96875 19.121094 43.339844 18.542969 43.597656 C 18.925781 44.414062 19.199219 45.144531 19.34375 45.554688 C 20.140625 47.820312 20.273438 50.496094 20.410156 53.332031 C 20.636719 57.957031 20.867188 62.738281 24.03125 66.191406 C 24.246094 66.429688 24.234375 66.800781 23.992188 67.019531 C 23.753906 67.238281 23.382812 67.222656 23.164062 66.984375 C 19.71875 63.21875 19.460938 57.996094 19.238281 53.390625 C 19.105469 50.644531 18.976562 48.050781 18.234375 45.945312 C 18 45.277344 17.71875 44.59375 17.40625 43.941406 C 16.660156 44.078125 15.863281 44.039062 15.027344 43.835938 C 14.179688 43.625 12.441406 42.671875 12.261719 41.414062 C 12.253906 41.351562 12.246094 41.285156 12.246094 41.210938 " fill-opacity="1" fill-rule="nonzero"/></g></svg>